<?xml version="1.0" standalone="no"?>
<!DOCTYPE svg PUBLIC "-//W3C//DTD SVG 20010904//EN"
 "http://www.w3.org/TR/2001/REC-SVG-20010904/DTD/svg10.dtd">
<svg version="1.0" xmlns="http://www.w3.org/2000/svg"
 width="75.000000pt" height="75.000000pt" viewBox="0 0 75.000000 75.000000"
 preserveAspectRatio="xMidYMid meet">

<g transform="translate(0.000000,75.000000) scale(0.100000,-0.100000)"
fill="#000000" stroke="none">
<path d="M0 375 l0 -375 375 0 375 0 0 375 0 375 -375 0 -375 0 0 -375z m580
10 c0 -182 -1 -195 -19 -205 -48 -25 -121 -1 -121 40 0 27 22 40 64 40 l41 0
0 100 0 100 -117 0 -118 0 0 -135 c0 -123 -2 -135 -19 -145 -46 -24 -121 0
-121 39 0 28 25 43 70 43 l40 -1 0 160 0 159 150 0 150 0 0 -195z"/>
</g>
</svg>
